<svg width="16" height="17" viewBox="0 0 16 17" fill="none" xmlns="http://www.w3.org/2000/svg">
<path d="M14.6663 11.66V3.6133C14.6663 2.8133 14.013 2.21996 13.2197 2.28663H13.1797C11.7797 2.40663 9.65301 3.11996 8.46634 3.86663L8.35301 3.93996C8.15967 4.05996 7.83967 4.05996 7.64634 3.93996L7.47967 3.83996C6.29301 3.09996 4.17301 2.3933 2.77301 2.27996C1.97967 2.2133 1.33301 2.8133 1.33301 3.60663V11.66C1.33301 12.3 1.85301 12.9 2.49301 12.98L2.68634 13.0066C4.13301 13.2 6.36634 13.9333 7.64634 14.6333L7.67301 14.6466C7.85301 14.7466 8.13967 14.7466 8.31301 14.6466C9.59301 13.94 11.833 13.2 13.2863 13.0066L13.5063 12.98C14.1463 12.9 14.6663 12.3 14.6663 11.66Z" stroke="#565656" stroke-linecap="round" stroke-linejoin="round"/>
<path d="M8 4.15991V14.1599" stroke="#565656" stroke-linecap="round" stroke-linejoin="round"/>
<path d="M5.16699 6.15991H3.66699" stroke="#565656" stroke-linecap="round" stroke-linejoin="round"/>
<path d="M5.66699 8.15991H3.66699" stroke="#565656" stroke-linecap="round" stroke-linejoin="round"/>
</svg>