<svg width="32" height="32" viewBox="0 0 32 32" fill="none" xmlns="http://www.w3.org/2000/svg">
<path d="M0 3.2C0 1.43269 1.43269 0 3.2 0H28.8C30.5673 0 32 1.43269 32 3.2V28.8C32 30.5673 30.5673 32 28.8 32H3.2C1.43269 32 0 30.5673 0 28.8V3.2Z" fill="#2B70DB"/>
<path d="M26.3251 21.2908L22.9864 13.4934C21.8557 10.8481 19.7757 10.7414 18.3784 13.2588L16.3624 16.8961C15.3384 18.7414 13.4291 18.9014 12.1064 17.2481L11.8717 16.9494C10.4957 15.2214 8.55441 15.4348 7.56241 17.4081L5.72774 21.0881C4.43708 23.6481 6.30374 26.6668 9.16241 26.6668H22.7731C25.5464 26.6668 27.4131 23.8401 26.3251 21.2908Z" fill="white" stroke="#FAFAFA" stroke-width="1.6" stroke-linecap="round" stroke-linejoin="round"/>
<path d="M10.6348 11.7335C12.4021 11.7335 13.8348 10.3008 13.8348 8.5335C13.8348 6.76618 12.4021 5.3335 10.6348 5.3335C8.86744 5.3335 7.43475 6.76618 7.43475 8.5335C7.43475 10.3008 8.86744 11.7335 10.6348 11.7335Z" fill="white"/>
</svg>
