<svg width="32" height="32" viewBox="0 0 32 32" fill="none" xmlns="http://www.w3.org/2000/svg">
<rect width="32" height="32" fill="white"/>
<path d="M9.97461 24.4668L14.1079 27.6668C14.6413 28.2001 15.8413 28.4668 16.6413 28.4668H21.7079C23.3079 28.4668 25.0413 27.2668 25.4413 25.6668L28.6413 15.9335C29.3079 14.0668 28.1079 12.4668 26.1079 12.4668H20.7746C19.9746 12.4668 19.3079 11.8001 19.4413 10.8668L20.1079 6.60012C20.3746 5.40012 19.5746 4.06679 18.3746 3.66679C17.3079 3.26679 15.9746 3.80012 15.4413 4.60012L9.97461 12.7335" stroke="#565656" stroke-width="2" stroke-miterlimit="10"/>
<path d="M3.17383 24.4667V11.4C3.17383 9.53337 3.97383 8.8667 5.84049 8.8667H7.17383C9.04049 8.8667 9.84049 9.53337 9.84049 11.4V24.4667C9.84049 26.3334 9.04049 27 7.17383 27H5.84049C3.97383 27 3.17383 26.3334 3.17383 24.4667Z" stroke="#565656" stroke-width="2" stroke-linecap="round" stroke-linejoin="round"/>
</svg>
