<svg width="104" height="76" viewBox="0 0 104 76" fill="none" xmlns="http://www.w3.org/2000/svg">
<circle cx="52" cy="24.7498" r="19.6682" fill="#2B70DB"/>
<circle cx="52" cy="24.7498" r="23.2442" stroke="#2B70DB" stroke-width="1.53259"/>
<path d="M52.5886 15.0619C54.1369 15.0619 55.5813 15.1657 56.9219 15.3734C58.2813 15.5623 59.2537 15.7605 59.8391 15.9682L60.6887 16.2798V24.3799C59.1593 23.6813 57.0635 23.332 54.4012 23.332V24.0684C56.8558 24.2572 58.6212 24.7481 59.6975 25.5411C60.7737 26.3341 61.3118 27.5331 61.3118 29.138C61.3118 31.0639 60.5282 32.5556 58.9611 33.6129C57.3939 34.6703 54.9771 35.199 51.7106 35.199C49.8413 35.199 48.1892 35.0951 46.7542 34.8874C45.3192 34.6609 44.3563 34.4437 43.8653 34.236L43.1006 33.8962V26.8439C43.2706 26.9195 43.5255 27.0233 43.8653 27.1555C44.2052 27.2876 44.9605 27.4576 46.1311 27.6653C47.3207 27.873 48.5952 27.9768 49.9546 27.9768V27.2971C47.6511 27.1272 45.914 26.6362 44.7433 25.8243C43.5727 25.0124 42.9874 23.5963 42.9874 21.576C42.9874 19.5557 43.7898 17.9696 45.3947 16.8179C46.9997 15.6472 49.3976 15.0619 52.5886 15.0619Z" fill="white"/>
<path d="M6.238 71.3234C4.71768 71.3234 3.49161 70.882 2.5598 69.9992C1.62798 69.1164 1.13756 68.0865 1.08851 66.9095H4.01269C4.11077 67.449 4.35599 67.872 4.74833 68.1785C5.15293 68.4727 5.64949 68.6199 6.238 68.6199C6.74069 68.6199 7.14529 68.5157 7.45181 68.3072C7.77059 68.0988 7.92998 67.8168 7.92998 67.4612C7.92998 66.8359 7.35985 66.3639 6.21961 66.0451L4.95063 65.7141C3.85943 65.4198 3.00118 64.9417 2.37589 64.2796C1.75059 63.6175 1.43181 62.7899 1.41955 61.7968C1.41955 60.583 1.82415 59.6205 2.63336 58.9094C3.45483 58.186 4.54603 57.8243 5.90696 57.8243C7.28016 57.8243 8.39588 58.2412 9.25413 59.0749C10.1124 59.8964 10.566 60.8405 10.6151 61.9071H7.70928C7.57442 61.429 7.34146 61.0795 7.01042 60.8589C6.67939 60.6382 6.31157 60.5278 5.90696 60.5278C5.45332 60.5278 5.0855 60.6198 4.8035 60.8037C4.52151 60.9876 4.37438 61.2512 4.36212 61.5945C4.34986 61.9378 4.47246 62.2198 4.72994 62.4405C4.99967 62.6612 5.40427 62.8451 5.94374 62.9922L7.43342 63.3784C8.52462 63.6727 9.37061 64.157 9.97138 64.8313C10.5844 65.5057 10.8909 66.3516 10.8909 67.3693C10.8909 68.4973 10.4618 69.4413 9.60356 70.2015C8.74531 70.9494 7.62346 71.3234 6.238 71.3234ZM16.9887 71.305C15.6032 71.305 14.4507 70.8452 13.5312 69.9256C12.6116 68.9938 12.1519 67.8536 12.1519 66.5049C12.1519 65.1562 12.6116 64.0221 13.5312 63.1026C14.4507 62.1708 15.6032 61.7048 16.9887 61.7048C18.2516 61.7048 19.2937 62.0543 20.1152 62.7531C20.9366 63.452 21.4761 64.3654 21.7336 65.4934H18.8646C18.46 64.6351 17.8347 64.206 16.9887 64.206C16.3879 64.206 15.8975 64.4145 15.5174 64.8313C15.1373 65.2359 14.9473 65.7938 14.9473 66.5049C14.9473 67.216 15.1373 67.78 15.5174 68.1969C15.8975 68.6015 16.3879 68.8038 16.9887 68.8038C17.8347 68.8038 18.46 68.3747 18.8646 67.5164H21.7336C21.4761 68.6444 20.9366 69.5578 20.1152 70.2567C19.2937 70.9555 18.2516 71.305 16.9887 71.305ZM26.113 71.1027H23.3359V57.3094H26.113V62.8451C26.6402 62.0849 27.4923 61.7048 28.6693 61.7048C29.785 61.7048 30.6555 62.0788 31.2808 62.8267C31.9184 63.5746 32.2372 64.5616 32.2372 65.7877V71.1027H29.4601V66.2658C29.4601 64.9049 28.9636 64.2244 27.9705 64.2244C27.4187 64.2244 26.9712 64.4267 26.6279 64.8313C26.2846 65.2359 26.113 65.8367 26.113 66.6336V71.1027ZM42.0867 69.9256C41.1426 70.8452 40.0024 71.305 38.666 71.305C37.3296 71.305 36.1893 70.8452 35.2453 69.9256C34.3012 68.9938 33.8291 67.8536 33.8291 66.5049C33.8291 65.1562 34.3012 64.0221 35.2453 63.1026C36.1893 62.1708 37.3296 61.7048 38.666 61.7048C40.0024 61.7048 41.1426 62.1708 42.0867 63.1026C43.0308 64.0221 43.5028 65.1562 43.5028 66.5049C43.5028 67.8536 43.0308 68.9938 42.0867 69.9256ZM37.1947 68.1049C37.587 68.5095 38.0775 68.7118 38.666 68.7118C39.2545 68.7118 39.7388 68.5095 40.1189 68.1049C40.5112 67.7003 40.7074 67.167 40.7074 66.5049C40.7074 65.8428 40.5112 65.3095 40.1189 64.9049C39.7388 64.5003 39.2545 64.298 38.666 64.298C38.0775 64.298 37.587 64.5003 37.1947 64.9049C36.8146 65.3095 36.6246 65.8428 36.6246 66.5049C36.6246 67.167 36.8146 67.7003 37.1947 68.1049ZM52.8986 69.9256C51.9546 70.8452 50.8143 71.305 49.4779 71.305C48.1415 71.305 47.0012 70.8452 46.0572 69.9256C45.1131 68.9938 44.6411 67.8536 44.6411 66.5049C44.6411 65.1562 45.1131 64.0221 46.0572 63.1026C47.0012 62.1708 48.1415 61.7048 49.4779 61.7048C50.8143 61.7048 51.9546 62.1708 52.8986 63.1026C53.8427 64.0221 54.3147 65.1562 54.3147 66.5049C54.3147 67.8536 53.8427 68.9938 52.8986 69.9256ZM48.0066 68.1049C48.399 68.5095 48.8894 68.7118 49.4779 68.7118C50.0664 68.7118 50.5507 68.5095 50.9308 68.1049C51.3231 67.7003 51.5193 67.167 51.5193 66.5049C51.5193 65.8428 51.3231 65.3095 50.9308 64.9049C50.5507 64.5003 50.0664 64.298 49.4779 64.298C48.8894 64.298 48.399 64.5003 48.0066 64.9049C47.6265 65.3095 47.4365 65.8428 47.4365 66.5049C47.4365 67.167 47.6265 67.7003 48.0066 68.1049ZM56.0231 71.1027V57.3094H58.8001V71.1027H56.0231ZM67.9957 74.9464H65.2186V61.9071H67.9957V62.8267C68.1918 62.5324 68.5167 62.275 68.9704 62.0543C69.424 61.8213 69.9328 61.7048 70.4968 61.7048C71.6861 61.7048 72.6915 62.1769 73.513 63.121C74.3467 64.065 74.7636 65.193 74.7636 66.5049C74.7636 67.8168 74.3467 68.9448 73.513 69.8889C72.6915 70.8329 71.6861 71.305 70.4968 71.305C69.9328 71.305 69.424 71.1946 68.9704 70.9739C68.5167 70.741 68.1918 70.4774 67.9957 70.1831V74.9464ZM68.3451 68.1417C68.7374 68.5708 69.2462 68.7854 69.8715 68.7854C70.4968 68.7854 70.9995 68.5708 71.3796 68.1417C71.7719 67.7126 71.9681 67.167 71.9681 66.5049C71.9681 65.8428 71.7719 65.2972 71.3796 64.8681C70.9995 64.439 70.4968 64.2244 69.8715 64.2244C69.2462 64.2244 68.7374 64.439 68.3451 64.8681C67.965 65.2972 67.775 65.8428 67.775 66.5049C67.775 67.167 67.965 67.7126 68.3451 68.1417ZM76.4975 71.1027V57.3094H79.2745V71.1027H76.4975ZM84.9278 71.305C83.812 71.305 82.9538 70.931 82.353 70.1831C81.7522 69.4352 81.4518 68.4237 81.4518 67.1486V61.9071H84.2289V66.6704C84.2289 68.0804 84.7009 68.7854 85.645 68.7854C86.7975 68.7854 87.3738 67.9823 87.3738 66.3762V61.9071H90.1508V71.1027H87.3738V70.1647C86.8466 70.9249 86.0312 71.305 84.9278 71.305ZM96.7683 75.1303C95.4809 75.1303 94.4265 74.7931 93.605 74.1188C92.7958 73.4567 92.3544 72.6169 92.2809 71.5992H94.9843C95.2663 72.4207 95.8855 72.8314 96.8418 72.8314C97.3568 72.8314 97.792 72.6659 98.1476 72.3349C98.5032 72.0161 98.6809 71.5502 98.6809 70.9371V69.8521C98.4603 70.1831 98.1231 70.4528 97.6694 70.6613C97.2281 70.8697 96.7315 70.9739 96.1798 70.9739C95.0027 70.9739 93.9912 70.5264 93.1452 69.6314C92.2993 68.7241 91.8763 67.6268 91.8763 66.3394C91.8763 65.052 92.2993 63.9608 93.1452 63.0658C93.9912 62.1585 95.0027 61.7048 96.1798 61.7048C96.7315 61.7048 97.2281 61.8091 97.6694 62.0175C98.1231 62.2259 98.4603 62.4957 98.6809 62.8267V61.9071H101.458V70.5325C101.458 71.354 101.323 72.0713 101.053 72.6843C100.796 73.2973 100.44 73.7755 99.9867 74.1188C99.5453 74.4621 99.0549 74.7134 98.5154 74.8728C97.976 75.0445 97.3936 75.1303 96.7683 75.1303ZM95.297 67.8658C95.7139 68.2582 96.2104 68.4544 96.7867 68.4544C97.3629 68.4544 97.8595 68.2582 98.2763 67.8658C98.6932 67.4735 98.9016 66.9647 98.9016 66.3394C98.9016 65.7141 98.6932 65.2053 98.2763 64.8129C97.8595 64.4206 97.3629 64.2244 96.7867 64.2244C96.2104 64.2244 95.7139 64.4206 95.297 64.8129C94.8801 65.2053 94.6717 65.7141 94.6717 66.3394C94.6717 66.9647 94.8801 67.4735 95.297 67.8658Z" fill="#2B70DB"/>
</svg>
