<svg width="16" height="17" viewBox="0 0 16 17" fill="none" xmlns="http://www.w3.org/2000/svg">
<path d="M6.70001 2.18669L2.68668 4.80669C1.40001 5.64669 1.40001 7.52669 2.68668 8.36669L6.70001 10.9867C7.42001 11.46 8.60668 11.46 9.32668 10.9867L13.32 8.36669C14.6 7.52669 14.6 5.65336 13.32 4.81336L9.32668 2.19336C8.60668 1.71336 7.42001 1.71336 6.70001 2.18669Z" stroke="#565656" stroke-linecap="round" stroke-linejoin="round"/>
<path d="M3.75374 9.21997L3.74707 12.3466C3.74707 13.1933 4.4004 14.1 5.2004 14.3666L7.32707 15.0733C7.69374 15.1933 8.3004 15.1933 8.67374 15.0733L10.8004 14.3666C11.6004 14.1 12.2537 13.1933 12.2537 12.3466V9.2533" stroke="#565656" stroke-linecap="round" stroke-linejoin="round"/>
<path d="M14.2666 10.5V6.5" stroke="#565656" stroke-linecap="round" stroke-linejoin="round"/>
</svg>