<svg width="12" height="12" viewBox="0 0 12 12" fill="none" xmlns="http://www.w3.org/2000/svg">
<path d="M8.26084 2.82495L6.71084 1.62495C6.51084 1.42495 6.06084 1.32495 5.76084 1.32495H3.86084C3.26084 1.32495 2.61084 1.77495 2.46084 2.37495L1.26084 6.02495C1.01084 6.72495 1.46084 7.32495 2.21084 7.32495H4.21084C4.51084 7.32495 4.76084 7.57495 4.71084 7.92495L4.46084 9.52495C4.36084 9.97495 4.66084 10.475 5.11084 10.625C5.51084 10.775 6.01084 10.575 6.21084 10.275L8.26084 7.22495" stroke="#565656" stroke-miterlimit="10"/>
<path d="M10.8086 2.825V7.725C10.8086 8.425 10.5086 8.675 9.80859 8.675H9.30859C8.60859 8.675 8.30859 8.425 8.30859 7.725V2.825C8.30859 2.125 8.60859 1.875 9.30859 1.875H9.80859C10.5086 1.875 10.8086 2.125 10.8086 2.825Z" stroke="#565656" stroke-linecap="round" stroke-linejoin="round"/>
</svg>
