<svg width="12" height="12" viewBox="0 0 12 12" fill="none" xmlns="http://www.w3.org/2000/svg">
<path d="M5.5 1H4.5C2 1 1 2 1 4.5V7.5C1 10 2 11 4.5 11H7.5C10 11 11 10 11 7.5V6.5" stroke="white" stroke-width="0.75" stroke-linecap="round" stroke-linejoin="round"/>
<path d="M8.01994 1.51061L4.07994 5.45061C3.92994 5.60061 3.77994 5.89561 3.74994 6.11061L3.53494 7.61561C3.45494 8.16061 3.83994 8.54061 4.38494 8.46561L5.88994 8.25061C6.09994 8.22061 6.39494 8.07061 6.54994 7.92061L10.4899 3.98061C11.1699 3.30061 11.4899 2.51061 10.4899 1.51061C9.48994 0.510615 8.69994 0.830615 8.01994 1.51061Z" stroke="white" stroke-width="0.75" stroke-miterlimit="10" stroke-linecap="round" stroke-linejoin="round"/>
<path d="M7.45508 2.0752C7.79008 3.2702 8.72508 4.2052 9.92508 4.5452" stroke="white" stroke-width="0.75" stroke-miterlimit="10" stroke-linecap="round" stroke-linejoin="round"/>
</svg>
