<svg width="13" height="12" viewBox="0 0 13 12" fill="none" xmlns="http://www.w3.org/2000/svg">
<path d="M12 2L1 10" stroke="#565656" stroke-miterlimit="10" stroke-linecap="round"/>
<path d="M7.00946 1C5.16946 1 3.67946 2.49 3.67946 4.33V5.38C3.67946 5.72 3.53946 6.23 3.36446 6.52L2.72946 7.58C2.33946 8.235 2.60946 8.965 3.32946 9.205C5.71946 10 8.30446 10 10.6945 9.205C11.3695 8.98 11.6595 8.19 11.2945 7.58L10.6595 6.52C10.4845 6.23 10.3445 5.715 10.3445 5.38V4.33C10.3395 2.5 8.83946 1 7.00946 1Z" stroke="#565656" stroke-miterlimit="10" stroke-linecap="round"/>
<path d="M8.66594 9.41016C8.66594 10.3252 7.91594 11.0752 7.00094 11.0752C6.54594 11.0752 6.12594 10.8852 5.82594 10.5852C5.52594 10.2852 5.33594 9.86516 5.33594 9.41016" stroke="#565656" stroke-miterlimit="10"/>
</svg>
