<svg width="723" height="35" viewBox="0 0 723 35" fill="none" xmlns="http://www.w3.org/2000/svg">
<path d="M0.166666 16.4043C0.166666 19.626 2.77834 22.2376 6 22.2376C9.22166 22.2376 11.8333 19.626 11.8333 16.4043C11.8333 13.1826 9.22166 10.571 6 10.571C2.77834 10.571 0.166666 13.1826 0.166666 16.4043ZM710.479 16.4043C710.479 19.626 713.091 22.2376 716.312 22.2376C719.534 22.2376 722.146 19.626 722.146 16.4043C722.146 13.1826 719.534 10.571 716.312 10.571C713.091 10.571 710.479 13.1826 710.479 16.4043ZM6 17.498H716.312V15.3105H6V17.498Z" fill="#07B64A"/>
<circle cx="218.183" cy="17.5" r="16.4063" fill="white" stroke="#07B64A" stroke-width="2.1875"/>
<circle cx="218.183" cy="17.5" r="9.84375" fill="#2B70DB" stroke="#2B70DB" stroke-width="2.1875"/>
<circle cx="544.121" cy="17.5" r="16.4063" fill="white" stroke="#07B64A" stroke-width="2.1875"/>
</svg>
