<svg width="104" height="23" viewBox="0 0 104 23" fill="none" xmlns="http://www.w3.org/2000/svg">
<path d="M6.15206 18.2207C4.63174 18.2207 3.40567 17.7793 2.47386 16.8965C1.54205 16.0138 1.05162 14.9839 1.00258 13.8068H3.92675C4.02483 14.3463 4.27005 14.7693 4.66239 15.0758C5.06699 15.3701 5.56355 15.5172 6.15206 15.5172C6.65475 15.5172 7.05935 15.413 7.36587 15.2046C7.68465 14.9961 7.84404 14.7141 7.84404 14.3586C7.84404 13.7333 7.27392 13.2612 6.13367 12.9425L4.86469 12.6114C3.77349 12.3172 2.91524 11.839 2.28995 11.1769C1.66465 10.5149 1.34587 9.68725 1.33361 8.69414C1.33361 7.48033 1.73822 6.51787 2.54742 5.80675C3.36889 5.08337 4.46009 4.72168 5.82103 4.72168C7.19422 4.72168 8.30994 5.13854 9.16819 5.97227C10.0264 6.79373 10.4801 7.73781 10.5291 8.80449H7.62335C7.48848 8.32632 7.25553 7.97689 6.92449 7.7562C6.59345 7.5355 6.22563 7.42516 5.82103 7.42516C5.36738 7.42516 4.99956 7.51711 4.71756 7.70102C4.43557 7.88493 4.28844 8.14854 4.27618 8.49184C4.26392 8.83514 4.38652 9.11713 4.644 9.33782C4.91373 9.55852 5.31834 9.74243 5.85781 9.88956L7.34748 10.2758C8.43868 10.57 9.28467 11.0543 9.88544 11.7287C10.4985 12.403 10.805 13.249 10.805 14.2666C10.805 15.3946 10.3759 16.3387 9.51762 17.0988C8.65937 17.8467 7.53752 18.2207 6.15206 18.2207ZM16.9028 18.2023C15.5173 18.2023 14.3648 17.7425 13.4453 16.823C12.5257 15.8912 12.0659 14.7509 12.0659 13.4022C12.0659 12.0536 12.5257 10.9195 13.4453 9.9999C14.3648 9.06809 15.5173 8.60218 16.9028 8.60218C18.1656 8.60218 19.2078 8.95161 20.0292 9.65047C20.8507 10.3493 21.3902 11.2628 21.6477 12.3907H18.7787C18.3741 11.5325 17.7488 11.1034 16.9028 11.1034C16.302 11.1034 15.8116 11.3118 15.4315 11.7287C15.0514 12.1333 14.8614 12.6911 14.8614 13.4022C14.8614 14.1134 15.0514 14.6774 15.4315 15.0942C15.8116 15.4988 16.302 15.7011 16.9028 15.7011C17.7488 15.7011 18.3741 15.272 18.7787 14.4137H21.6477C21.3902 15.5417 20.8507 16.4552 20.0292 17.154C19.2078 17.8529 18.1656 18.2023 16.9028 18.2023ZM26.027 18H23.25V4.20673H26.027V9.74243C26.5542 8.98226 27.4063 8.60218 28.5834 8.60218C29.6991 8.60218 30.5696 8.97613 31.1949 9.72404C31.8325 10.4719 32.1512 11.4589 32.1512 12.685V18H29.3742V13.1632C29.3742 11.8022 28.8776 11.1218 27.8845 11.1218C27.3328 11.1218 26.8853 11.3241 26.542 11.7287C26.1987 12.1333 26.027 12.734 26.027 13.531V18ZM42.0008 16.823C41.0567 17.7425 39.9165 18.2023 38.58 18.2023C37.2436 18.2023 36.1034 17.7425 35.1593 16.823C34.2152 15.8912 33.7432 14.7509 33.7432 13.4022C33.7432 12.0536 34.2152 10.9195 35.1593 9.9999C36.1034 9.06809 37.2436 8.60218 38.58 8.60218C39.9165 8.60218 41.0567 9.06809 42.0008 9.9999C42.9449 10.9195 43.4169 12.0536 43.4169 13.4022C43.4169 14.7509 42.9449 15.8912 42.0008 16.823ZM37.1088 15.0023C37.5011 15.4069 37.9915 15.6092 38.58 15.6092C39.1686 15.6092 39.6529 15.4069 40.0329 15.0023C40.4253 14.5977 40.6215 14.0643 40.6215 13.4022C40.6215 12.7402 40.4253 12.2068 40.0329 11.8022C39.6529 11.3976 39.1686 11.1953 38.58 11.1953C37.9915 11.1953 37.5011 11.3976 37.1088 11.8022C36.7287 12.2068 36.5386 12.7402 36.5386 13.4022C36.5386 14.0643 36.7287 14.5977 37.1088 15.0023ZM52.8127 16.823C51.8686 17.7425 50.7284 18.2023 49.392 18.2023C48.0555 18.2023 46.9153 17.7425 45.9712 16.823C45.0272 15.8912 44.5551 14.7509 44.5551 13.4022C44.5551 12.0536 45.0272 10.9195 45.9712 9.9999C46.9153 9.06809 48.0555 8.60218 49.392 8.60218C50.7284 8.60218 51.8686 9.06809 52.8127 9.9999C53.7568 10.9195 54.2288 12.0536 54.2288 13.4022C54.2288 14.7509 53.7568 15.8912 52.8127 16.823ZM47.9207 15.0023C48.313 15.4069 48.8034 15.6092 49.392 15.6092C49.9805 15.6092 50.4648 15.4069 50.8449 15.0023C51.2372 14.5977 51.4334 14.0643 51.4334 13.4022C51.4334 12.7402 51.2372 12.2068 50.8449 11.8022C50.4648 11.3976 49.9805 11.1953 49.392 11.1953C48.8034 11.1953 48.313 11.3976 47.9207 11.8022C47.5406 12.2068 47.3506 12.7402 47.3506 13.4022C47.3506 14.0643 47.5406 14.5977 47.9207 15.0023ZM55.9372 18V4.20673H58.7142V18H55.9372ZM67.9097 21.8437H65.1327V8.80449H67.9097V9.72404C68.1059 9.42978 68.4308 9.17231 68.8844 8.95161C69.3381 8.71866 69.8469 8.60218 70.4109 8.60218C71.6002 8.60218 72.6056 9.07422 73.427 10.0183C74.2607 10.9624 74.6776 12.0903 74.6776 13.4022C74.6776 14.7141 74.2607 15.8421 73.427 16.7862C72.6056 17.7303 71.6002 18.2023 70.4109 18.2023C69.8469 18.2023 69.3381 18.092 68.8844 17.8713C68.4308 17.6383 68.1059 17.3747 67.9097 17.0804V21.8437ZM68.2591 15.039C68.6515 15.4682 69.1603 15.6827 69.7856 15.6827C70.4109 15.6827 70.9136 15.4682 71.2937 15.039C71.686 14.6099 71.8822 14.0643 71.8822 13.4022C71.8822 12.7402 71.686 12.1946 71.2937 11.7654C70.9136 11.3363 70.4109 11.1218 69.7856 11.1218C69.1603 11.1218 68.6515 11.3363 68.2591 11.7654C67.8791 12.1946 67.689 12.7402 67.689 13.4022C67.689 14.0643 67.8791 14.6099 68.2591 15.039ZM76.4115 18V4.20673H79.1886V18H76.4115ZM84.8418 18.2023C83.7261 18.2023 82.8678 17.8284 82.2671 17.0804C81.6663 16.3325 81.3659 15.321 81.3659 14.0459V8.80449H84.143V13.5678C84.143 14.9777 84.615 15.6827 85.5591 15.6827C86.7116 15.6827 87.2878 14.8797 87.2878 13.2735V8.80449H90.0649V18H87.2878V17.0621C86.7606 17.8222 85.9453 18.2023 84.8418 18.2023ZM96.6823 22.0276C95.395 22.0276 94.3405 21.6905 93.5191 21.0161C92.7099 20.3541 92.2685 19.5142 92.1949 18.4966H94.8984C95.1804 19.318 95.7996 19.7288 96.7559 19.7288C97.2709 19.7288 97.7061 19.5632 98.0617 19.2322C98.4172 18.9134 98.595 18.4475 98.595 17.8345V16.7494C98.3743 17.0804 98.0371 17.3502 97.5835 17.5586C97.1421 17.767 96.6456 17.8713 96.0938 17.8713C94.9168 17.8713 93.9053 17.4237 93.0593 16.5287C92.2133 15.6214 91.7903 14.5241 91.7903 13.2367C91.7903 11.9494 92.2133 10.8581 93.0593 9.96312C93.9053 9.05583 94.9168 8.60218 96.0938 8.60218C96.6456 8.60218 97.1421 8.7064 97.5835 8.91483C98.0371 9.12326 98.3743 9.393 98.595 9.72404V8.80449H101.372V17.4299C101.372 18.2513 101.237 18.9686 100.967 19.5816C100.71 20.1947 100.354 20.6728 99.9008 21.0161C99.4594 21.3594 98.969 21.6108 98.4295 21.7702C97.89 21.9418 97.3076 22.0276 96.6823 22.0276ZM95.2111 14.7632C95.6279 15.1555 96.1245 15.3517 96.7007 15.3517C97.277 15.3517 97.7735 15.1555 98.1904 14.7632C98.6073 14.3708 98.8157 13.862 98.8157 13.2367C98.8157 12.6114 98.6073 12.1026 98.1904 11.7103C97.7735 11.3179 97.277 11.1218 96.7007 11.1218C96.1245 11.1218 95.6279 11.3179 95.2111 11.7103C94.7942 12.1026 94.5858 12.6114 94.5858 13.2367C94.5858 13.862 94.7942 14.3708 95.2111 14.7632Z" fill="#2B70DB"/>
</svg>
