<svg width="16" height="16" viewBox="0 0 16 16" fill="none" xmlns="http://www.w3.org/2000/svg">
<path d="M6.70001 1.6862L2.68668 4.3062C1.40001 5.1462 1.40001 7.0262 2.68668 7.8662L6.70001 10.4862C7.42001 10.9595 8.60668 10.9595 9.32668 10.4862L13.32 7.8662C14.6 7.0262 14.6 5.15287 13.32 4.31287L9.32668 1.69287C8.60668 1.21287 7.42001 1.21287 6.70001 1.6862Z" stroke="#07B64A" stroke-width="1.5" stroke-linecap="round" stroke-linejoin="round"/>
<path d="M3.75334 8.71973L3.74667 11.8464C3.74667 12.6931 4.40001 13.5997 5.20001 13.8664L7.32667 14.5731C7.69334 14.6931 8.30001 14.6931 8.67334 14.5731L10.8 13.8664C11.6 13.5997 12.2533 12.6931 12.2533 11.8464V8.75306" stroke="#07B64A" stroke-width="1.5" stroke-linecap="round" stroke-linejoin="round"/>
<path d="M14.2667 10V6" stroke="#07B64A" stroke-width="1.5" stroke-linecap="round" stroke-linejoin="round"/>
</svg>
