<svg width="10" height="12" viewBox="0 0 10 12" fill="none" xmlns="http://www.w3.org/2000/svg">
<path d="M9.5 2.99023C7.835 2.82523 6.16 2.74023 4.49 2.74023C3.5 2.74023 2.51 2.79023 1.52 2.89023L0.5 2.99023" stroke="#565656" stroke-linecap="round" stroke-linejoin="round"/>
<path d="M3.25 2.485L3.36 1.83C3.44 1.355 3.5 1 4.345 1H5.655C6.5 1 6.565 1.375 6.64 1.835L6.75 2.485" stroke="#565656" stroke-linecap="round" stroke-linejoin="round"/>
<path d="M8.4252 4.57031L8.1002 9.60531C8.0452 10.3903 8.0002 11.0003 6.6052 11.0003H3.3952C2.0002 11.0003 1.9552 10.3903 1.9002 9.60531L1.5752 4.57031" stroke="#565656" stroke-linecap="round" stroke-linejoin="round"/>
<path d="M4.16504 8.25H5.83004" stroke="#565656" stroke-width="0.5" stroke-linecap="round" stroke-linejoin="round"/>
<path d="M3.75 6.25H6.25" stroke="#565656" stroke-width="0.5" stroke-linecap="round" stroke-linejoin="round"/>
</svg>
