<svg width="40" height="40" viewBox="0 0 40 40" fill="none" xmlns="http://www.w3.org/2000/svg">
<rect x="0.833333" y="0.833333" width="38.3333" height="38.3333" rx="19.1667" fill="white"/>
<rect x="0.833333" y="0.833333" width="38.3333" height="38.3333" rx="19.1667" stroke="#64F99D" stroke-width="1.66667"/>
<path d="M17.0827 25.8337H16.666C13.3327 25.8337 11.666 25.0003 11.666 20.8337V16.667C11.666 13.3337 13.3327 11.667 16.666 11.667H23.3327C26.666 11.667 28.3327 13.3337 28.3327 16.667V20.8337C28.3327 24.167 26.666 25.8337 23.3327 25.8337H22.916C22.6577 25.8337 22.4077 25.9587 22.2493 26.167L20.9993 27.8337C20.4493 28.567 19.5493 28.567 18.9993 27.8337L17.7493 26.167C17.616 25.9837 17.3077 25.8337 17.0827 25.8337Z" stroke="#07B64A" stroke-width="0.833333" stroke-miterlimit="10" stroke-linecap="round" stroke-linejoin="round"/>
<path d="M15.834 16.667H24.1673" stroke="#07B64A" stroke-width="0.833333" stroke-linecap="round" stroke-linejoin="round"/>
<path d="M15.834 20.833H20.834" stroke="#07B64A" stroke-width="0.833333" stroke-linecap="round" stroke-linejoin="round"/>
</svg>
