<svg width="32" height="32" viewBox="0 0 32 32" fill="none" xmlns="http://www.w3.org/2000/svg">
<path d="M31.5 16C31.5 7.43959 24.5604 0.5 16 0.5C7.43959 0.5 0.5 7.43959 0.5 16C0.5 24.5604 7.43959 31.5 16 31.5C24.5604 31.5 31.5 24.5604 31.5 16Z" fill="#FAFAFA"/>
<path d="M31.5 16C31.5 7.43959 24.5604 0.5 16 0.5C7.43959 0.5 0.5 7.43959 0.5 16C0.5 24.5604 7.43959 31.5 16 31.5C24.5604 31.5 31.5 24.5604 31.5 16Z" stroke="#BCBCBC"/>
<path d="M9.8679 19.4489V12.4091H11.6477V19.4489H9.8679ZM7.23793 16.8189V15.0391H14.2777V16.8189H7.23793ZM20.036 21.1392C19.2936 21.1392 18.6324 21.0116 18.0524 20.7564C17.4757 20.4979 17.0199 20.1432 16.6852 19.6925C16.3538 19.2384 16.1831 18.7147 16.1731 18.1214H18.3407C18.354 18.37 18.4352 18.5888 18.5843 18.7777C18.7368 18.9633 18.939 19.1075 19.1909 19.2102C19.4428 19.313 19.7261 19.3643 20.041 19.3643C20.3691 19.3643 20.6592 19.3063 20.911 19.1903C21.1629 19.0743 21.3601 18.9136 21.5027 18.7081C21.6452 18.5026 21.7164 18.2656 21.7164 17.9972C21.7164 17.7254 21.6402 17.4851 21.4877 17.2763C21.3386 17.0642 21.1232 16.8984 20.8414 16.7791C20.563 16.6598 20.2316 16.6001 19.8471 16.6001H18.8975V15.0192H19.8471C20.1719 15.0192 20.4586 14.9628 20.7072 14.8501C20.9591 14.7375 21.1547 14.5817 21.2939 14.3828C21.4331 14.1806 21.5027 13.9453 21.5027 13.6768C21.5027 13.4216 21.4413 13.1979 21.3187 13.0057C21.1994 12.8101 21.0304 12.6577 20.8116 12.5483C20.5962 12.4389 20.3443 12.3842 20.0559 12.3842C19.7643 12.3842 19.4975 12.4373 19.2555 12.5433C19.0136 12.6461 18.8197 12.7936 18.6738 12.9858C18.528 13.178 18.4501 13.4034 18.4402 13.6619H16.377C16.3869 13.0753 16.5543 12.5582 16.8791 12.1108C17.2039 11.6634 17.6414 11.3137 18.1916 11.0618C18.7451 10.8066 19.3699 10.679 20.0659 10.679C20.7685 10.679 21.3833 10.8066 21.9103 11.0618C22.4373 11.317 22.8467 11.6617 23.1383 12.0959C23.4333 12.5268 23.5791 13.0107 23.5758 13.5476C23.5791 14.1177 23.4018 14.5933 23.0439 14.9744C22.6892 15.3556 22.2269 15.5975 21.6568 15.7003V15.7798C22.4058 15.8759 22.9759 16.1361 23.367 16.5604C23.7614 16.9813 23.957 17.5083 23.9537 18.1413C23.957 18.7214 23.7896 19.2367 23.4515 19.6875C23.1168 20.1383 22.6544 20.4929 22.0645 20.7514C21.4745 21.0099 20.7984 21.1392 20.036 21.1392Z" fill="black"/>
</svg>
