<svg width="40" height="40" viewBox="0 0 40 40" fill="none" xmlns="http://www.w3.org/2000/svg">
<rect x="0.833333" y="0.833333" width="38.3333" height="38.3333" rx="19.1667" fill="white"/>
<rect x="0.833333" y="0.833333" width="38.3333" height="38.3333" rx="19.1667" stroke="#95B8ED" stroke-width="1.66667"/>
<path d="M16.2344 25.292L18.8177 27.292C19.151 27.6254 19.901 27.792 20.401 27.792H23.5677C24.5677 27.792 25.651 27.042 25.901 26.042L27.901 19.9587C28.3177 18.792 27.5677 17.792 26.3177 17.792H22.9844C22.4844 17.792 22.0677 17.3754 22.151 16.792L22.5677 14.1254C22.7344 13.3754 22.2344 12.542 21.4844 12.292C20.8177 12.042 19.9844 12.3754 19.651 12.8754L16.2344 17.9587" stroke="#2B70DB" stroke-width="1.25" stroke-miterlimit="10"/>
<path d="M11.9844 25.292V17.1253C11.9844 15.9587 12.4844 15.542 13.651 15.542H14.4844C15.651 15.542 16.151 15.9587 16.151 17.1253V25.292C16.151 26.4587 15.651 26.8753 14.4844 26.8753H13.651C12.4844 26.8753 11.9844 26.4587 11.9844 25.292Z" stroke="#2B70DB" stroke-width="1.25" stroke-linecap="round" stroke-linejoin="round"/>
</svg>
