<svg width="24" height="24" viewBox="0 0 24 24" fill="none" xmlns="http://www.w3.org/2000/svg">
<rect x="0.5" y="0.5" width="23" height="23" rx="11.5" fill="white"/>
<rect x="0.5" y="0.5" width="23" height="23" rx="11.5" stroke="#F5C662"/>
<path d="M17 8L6 16" stroke="#565656" stroke-miterlimit="10" stroke-linecap="round"/>
<path d="M12.0095 7C10.1695 7 8.67946 8.49 8.67946 10.33V11.38C8.67946 11.72 8.53946 12.23 8.36446 12.52L7.72946 13.58C7.33946 14.235 7.60946 14.965 8.32946 15.205C10.7195 16 13.3045 16 15.6945 15.205C16.3695 14.98 16.6595 14.19 16.2945 13.58L15.6595 12.52C15.4845 12.23 15.3445 11.715 15.3445 11.38V10.33C15.3395 8.5 13.8395 7 12.0095 7Z" stroke="#565656" stroke-miterlimit="10" stroke-linecap="round"/>
<path d="M13.6659 15.4102C13.6659 16.3252 12.9159 17.0752 12.0009 17.0752C11.5459 17.0752 11.1259 16.8852 10.8259 16.5852C10.5259 16.2852 10.3359 15.8652 10.3359 15.4102" stroke="#565656" stroke-miterlimit="10"/>
</svg>
