<svg width="24" height="24" viewBox="0 0 24 24" fill="none" xmlns="http://www.w3.org/2000/svg">
<rect x="0.5" y="0.5" width="23" height="23" rx="11.5" fill="white"/>
<rect x="0.5" y="0.5" width="23" height="23" rx="11.5" stroke="#F5C662"/>
<path d="M14.2608 8.8252L12.7108 7.6252C12.5108 7.4252 12.0608 7.3252 11.7608 7.3252H9.86084C9.26084 7.3252 8.61084 7.7752 8.46084 8.3752L7.26084 12.0252C7.01084 12.7252 7.46084 13.3252 8.21084 13.3252H10.2108C10.5108 13.3252 10.7608 13.5752 10.7108 13.9252L10.4608 15.5252C10.3608 15.9752 10.6608 16.4752 11.1108 16.6252C11.5108 16.7752 12.0108 16.5752 12.2108 16.2752L14.2608 13.2252" stroke="#565656" stroke-miterlimit="10"/>
<path d="M16.8086 8.825V13.725C16.8086 14.425 16.5086 14.675 15.8086 14.675H15.3086C14.6086 14.675 14.3086 14.425 14.3086 13.725V8.825C14.3086 8.125 14.6086 7.875 15.3086 7.875H15.8086C16.5086 7.875 16.8086 8.125 16.8086 8.825Z" stroke="#565656" stroke-linecap="round" stroke-linejoin="round"/>
</svg>
