<svg width="18" height="19" viewBox="0 0 18 19" fill="none" xmlns="http://www.w3.org/2000/svg">
<path d="M16.5 10.25V11.75C16.5 15.5 15 17 11.25 17H6.75C3 17 1.5 15.5 1.5 11.75V7.25C1.5 3.5 3 2 6.75 2H8.25" stroke="#2B70DB" stroke-width="1.5" stroke-linecap="round" stroke-linejoin="round"/>
<path d="M15.7351 6.4696L9.82505 12.3796C9.60005 12.6046 9.15755 12.8296 8.83505 12.8746L6.57755 13.1971C5.76005 13.3171 5.19005 12.7396 5.30255 11.9221L5.62505 9.6646C5.67005 9.3496 5.89505 8.9071 6.12005 8.6746L12.0301 2.7646C13.0501 1.7446 14.2351 1.2646 15.7351 2.7646C17.2351 4.2646 16.7551 5.4496 15.7351 6.4696Z" stroke="#2B70DB" stroke-width="1.5" stroke-miterlimit="10" stroke-linecap="round" stroke-linejoin="round"/>
<path d="M14.8875 7.31641C13.095 6.81391 11.6925 5.41141 11.1825 3.61141" stroke="#2B70DB" stroke-width="1.5" stroke-miterlimit="10" stroke-linecap="round" stroke-linejoin="round"/>
</svg>
