<svg width="18" height="18" viewBox="0 0 18 18" fill="none" xmlns="http://www.w3.org/2000/svg">
<path d="M6.75 9C6.75 7.75736 7.75736 6.75 9 6.75C10.2426 6.75 11.25 7.75736 11.25 9C11.25 10.2426 10.2426 11.25 9 11.25C7.75736 11.25 6.75 10.2426 6.75 9Z" stroke="#2B70DB" stroke-width="1.5" stroke-miterlimit="10" stroke-linecap="round" stroke-linejoin="round"/>
<path d="M8.33993 16.5H9.65993C10.4399 16.5 11.0849 15.8625 11.0849 15.075C11.0849 13.7175 12.0449 13.1625 13.2224 13.845C13.8974 14.235 14.7749 14.0025 15.1649 13.32L15.9074 12.0225C16.2599 11.43 16.0499 10.665 15.4574 10.3125L15.3149 10.23C14.1374 9.555 14.1374 8.445 15.3149 7.7625L15.4574 7.68C16.0499 7.3275 16.2599 6.5625 15.9074 5.97L15.1649 4.6725C14.7749 3.99 13.8974 3.7575 13.2224 4.1475C12.0449 4.83 11.0849 4.275 11.0849 2.9175C11.0849 2.1375 10.4474 1.4925 9.65993 1.4925H8.33993C7.55993 1.4925 6.91493 2.13 6.91493 2.9175C6.91493 4.275 5.95493 4.83 4.77743 4.1475C4.09493 3.7575 3.22493 3.99 2.83493 4.6725L2.09243 5.97C1.73993 6.5625 1.94992 7.3275 2.54242 7.68L2.68493 7.7625C3.86243 8.4375 3.86243 9.5475 2.68493 10.23L2.54242 10.3125C1.94992 10.665 1.73993 11.43 2.09243 12.0225L2.83493 13.32C3.22493 14.0025 4.10243 14.235 4.77743 13.845C5.95493 13.1625 6.91493 13.7175 6.91493 15.075C6.91493 15.8625 7.55993 16.5 8.33993 16.5Z" stroke="#2B70DB" stroke-width="1.5" stroke-miterlimit="10" stroke-linecap="round" stroke-linejoin="round"/>
</svg>
