<svg width="18" height="18" viewBox="0 0 18 18" fill="none" xmlns="http://www.w3.org/2000/svg">
<path d="M6.28491 9.00055L8.09241 10.8155L11.7149 7.18555" stroke="#7F7F7F" stroke-width="1.5" stroke-linecap="round" stroke-linejoin="round"/>
<path d="M8.06241 1.83773C8.57991 1.39523 9.42741 1.39523 9.95241 1.83773L11.1374 2.85773C11.3624 3.05273 11.7824 3.21023 12.0824 3.21023H13.3574C14.1524 3.21023 14.8049 3.86273 14.8049 4.65773V5.93273C14.8049 6.22523 14.9624 6.65273 15.1574 6.87773L16.1774 8.06273C16.6199 8.58023 16.6199 9.42773 16.1774 9.95273L15.1574 11.1377C14.9624 11.3627 14.8049 11.7827 14.8049 12.0827V13.3577C14.8049 14.1527 14.1524 14.8052 13.3574 14.8052H12.0824C11.7899 14.8052 11.3624 14.9627 11.1374 15.1577L9.95241 16.1777C9.43491 16.6202 8.58741 16.6202 8.06241 16.1777L6.87741 15.1577C6.65241 14.9627 6.23241 14.8052 5.93241 14.8052H4.63491C3.83991 14.8052 3.18741 14.1527 3.18741 13.3577V12.0752C3.18741 11.7827 3.02991 11.3627 2.84241 11.1377L1.82991 9.94523C1.39491 9.42773 1.39491 8.58773 1.82991 8.07023L2.84241 6.87773C3.02991 6.65273 3.18741 6.23273 3.18741 5.94023V4.65023C3.18741 3.85523 3.83991 3.20273 4.63491 3.20273H5.93241C6.22491 3.20273 6.65241 3.04523 6.87741 2.85023L8.06241 1.83773Z" stroke="#7F7F7F" stroke-width="1.5" stroke-linecap="round" stroke-linejoin="round"/>
</svg>
